<svg width="1200" height="750" viewBox="0 0 1200 750" xmlns="http://www.w3.org/2000/svg" role="img" aria-label="ChannelHelm dashboard — recent packages with pipeline progress and status">
  <defs>
    <linearGradient id="thumbA" x1="0" y1="0" x2="1" y2="1">
      <stop offset="0" stop-color="#082F49"/><stop offset="1" stop-color="#0EA5E9"/>
    </linearGradient>
    <linearGradient id="thumbB" x1="0" y1="0" x2="1" y2="1">
      <stop offset="0" stop-color="#451A03"/><stop offset="1" stop-color="#F59E0B"/>
    </linearGradient>
    <linearGradient id="thumbC" x1="0" y1="0" x2="1" y2="1">
      <stop offset="0" stop-color="#022C22"/><stop offset="1" stop-color="#10B981"/>
    </linearGradient>
    <linearGradient id="thumbD" x1="0" y1="0" x2="1" y2="1">
      <stop offset="0" stop-color="#2E1065" /><stop offset="1" stop-color="#A855F7"/>
    </linearGradient>
    <linearGradient id="heroGlow" x1="0" y1="0" x2="0" y2="1">
      <stop offset="0" stop-color="#0ea5e9" stop-opacity="0.10"/>
      <stop offset="1" stop-color="#0ea5e9" stop-opacity="0"/>
    </linearGradient>
  </defs>

  <!-- background -->
  <rect x="0" y="0" width="1200" height="750" fill="#0a0a0b"/>

  <!-- ════ TOP NAV ════ -->
  <rect x="0" y="0" width="1200" height="56" fill="#0d0d0f"/>
  <line x1="0" y1="56" x2="1200" y2="56" stroke="#232329"/>
  <!-- logo mark -->
  <rect x="32" y="16" width="24" height="24" rx="6" fill="#0ea5e9"/>
  <path d="M40 36 L40 28 L43 28 L46 31 L49 28 L52 28 L52 36 L49 36 L49 32 L46 35 L43 32 L43 36 Z" fill="#ffffff" transform="translate(-1,-2)"/>
  <text x="66" y="33" font-family="Inter, system-ui, sans-serif" font-size="15" font-weight="600" fill="#f4f4f5" letter-spacing="-0.2">ChannelHelm</text>
  <!-- nav links -->
  <rect x="200" y="16" width="56" height="24" rx="7" fill="#0ea5e9" fill-opacity="0.12" stroke="#0ea5e9" stroke-opacity="0.30"/>
  <text x="228" y="32" text-anchor="middle" font-family="Inter, system-ui, sans-serif" font-size="13" font-weight="500" fill="#0ea5e9">+ New</text>
  <text x="282" y="32" font-family="Inter, system-ui, sans-serif" font-size="13" fill="#a1a1aa">Brands</text>
  <text x="344" y="32" font-family="Inter, system-ui, sans-serif" font-size="13" fill="#a1a1aa">Jobs</text>
  <text x="392" y="32" font-family="Inter, system-ui, sans-serif" font-size="13" fill="#a1a1aa">Providers</text>
  <text x="472" y="32" font-family="Inter, system-ui, sans-serif" font-size="13" fill="#a1a1aa">Settings</text>
  <!-- search / cmdk -->
  <rect x="980" y="14" width="188" height="28" rx="8" fill="#16161a" stroke="#232329"/>
  <text x="996" y="32" font-family="Inter, system-ui, sans-serif" font-size="12.5" fill="#71717a">Jump to anything…</text>
  <rect x="1134" y="20" width="26" height="16" rx="4" fill="#0a0a0b" stroke="#2e2e36"/>
  <text x="1147" y="32" text-anchor="middle" font-family="ui-monospace, monospace" font-size="10" fill="#a1a1aa">⌘K</text>

  <!-- ════ HERO ════ -->
  <rect x="0" y="57" width="1200" height="150" fill="url(#heroGlow)"/>
  <text x="56" y="96" font-family="ui-monospace, monospace" font-size="11" font-weight="500" fill="#71717a" letter-spacing="1.6">INGEST</text>
  <text x="128" y="96" font-family="ui-monospace, monospace" font-size="11" fill="#52525b">local · 3 brands</text>
  <text x="54" y="138" font-family="Georgia, serif" font-size="40" fill="#f4f4f5" letter-spacing="-0.5">Drop a video. <tspan fill="#71717a" font-style="italic">Get a publishing kit.</tspan></text>
  <text x="56" y="166" font-family="Inter, system-ui, sans-serif" font-size="14" fill="#a1a1aa">ChannelHelm transcribes, analyzes, and drafts every asset for every platform — locally on your Mac.</text>

  <!-- upload dropzone -->
  <rect x="56" y="190" width="1088" height="68" rx="12" fill="#111114" stroke="#2e2e36" stroke-dasharray="6 5"/>
  <rect x="76" y="206" width="36" height="36" rx="8" fill="#0ea5e9" fill-opacity="0.12" stroke="#0ea5e9" stroke-opacity="0.3"/>
  <text x="94" y="230" text-anchor="middle" font-family="Inter, system-ui, sans-serif" font-size="16" fill="#0ea5e9">⬆</text>
  <text x="128" y="218" font-family="Inter, system-ui, sans-serif" font-size="14" font-weight="600" fill="#f4f4f5">Drop a video or paste a link</text>
  <text x="128" y="238" font-family="Inter, system-ui, sans-serif" font-size="12" fill="#71717a">MP4, MOV, MKV, podcast audio — or a YouTube URL. Brand auto-detected from the channel.</text>
  <rect x="996" y="206" width="128" height="36" rx="8" fill="#0ea5e9" stroke="#3bb6ee"/>
  <text x="1060" y="229" text-anchor="middle" font-family="Inter, system-ui, sans-serif" font-size="13" font-weight="600" fill="#ffffff">Ingest video</text>

  <!-- ════ RECENT PACKAGES ════ -->
  <text x="56" y="296" font-family="ui-monospace, monospace" font-size="11" font-weight="500" fill="#71717a" letter-spacing="1.6">RECENT PACKAGES · 4</text>

  <!-- ── CARD 1 (analyzing) — top left ── -->
  <g transform="translate(56,312)">
    <rect x="0" y="0" width="536" height="92" rx="10" fill="#111114" stroke="#232329"/>
    <!-- thumb -->
    <rect x="12" y="18" width="88" height="56" rx="6" fill="url(#thumbA)"/>
    <path d="M16 60 Q44 50 72 60 T100 60" stroke="#ffffff" stroke-opacity="0.18" stroke-width="1" fill="none"/>
    <path d="M16 50 Q44 40 72 50 T100 50" stroke="#ffffff" stroke-opacity="0.14" stroke-width="1" fill="none"/>
    <rect x="68" y="58" width="28" height="13" rx="3" fill="#000000" fill-opacity="0.72"/>
    <text x="82" y="68" text-anchor="middle" font-family="ui-monospace, monospace" font-size="9" fill="#ffffff">18:42</text>
    <!-- brand + title -->
    <rect x="112" y="18" width="16" height="16" rx="4" fill="#0ea5e9" fill-opacity="0.22" stroke="#0ea5e9" stroke-opacity="0.4"/>
    <text x="120" y="30" text-anchor="middle" font-family="ui-monospace, monospace" font-size="9" font-weight="600" fill="#0ea5e9">AC</text>
    <text x="136" y="30" font-family="Inter, system-ui, sans-serif" font-size="11" font-weight="500" fill="#a1a1aa">Acme Media</text>
    <text x="216" y="30" font-family="ui-monospace, monospace" font-size="10" fill="#71717a">· premium multimodal</text>
    <text x="112" y="50" font-family="Inter, system-ui, sans-serif" font-size="13" font-weight="500" fill="#f4f4f5">How transformers actually work</text>
    <!-- status pill + pipeline -->
    <rect x="112" y="60" width="80" height="18" rx="9" fill="#14b8a6" fill-opacity="0.12" stroke="#14b8a6" stroke-opacity="0.24"/>
    <circle cx="124" cy="69" r="3" fill="#14b8a6"/>
    <text x="132" y="72.5" font-family="Inter, system-ui, sans-serif" font-size="11" font-weight="500" fill="#14b8a6">Analyzing</text>
    <!-- compact 4-segment pipeline: audio done, visual running, others empty -->
    <rect x="202" y="65" width="18" height="4" rx="1" fill="#10b981"/>
    <rect x="224" y="65" width="18" height="4" rx="1" fill="#232329"/>
    <rect x="226" y="65" width="9" height="4" rx="1" fill="#14b8a6"/>
    <rect x="246" y="65" width="18" height="4" rx="1" fill="#232329"/>
    <rect x="268" y="65" width="18" height="4" rx="1" fill="#232329"/>
    <text x="524" y="73" text-anchor="end" font-family="ui-monospace, monospace" font-size="10" fill="#71717a">3/24 assets</text>
  </g>

  <!-- ── CARD 2 (ready_for_review) — top right ── -->
  <g transform="translate(608,312)">
    <rect x="0" y="0" width="536" height="92" rx="10" fill="#111114" stroke="#232329"/>
    <rect x="12" y="18" width="88" height="56" rx="6" fill="url(#thumbB)"/>
    <path d="M16 60 Q44 50 72 60 T100 60" stroke="#ffffff" stroke-opacity="0.18" stroke-width="1" fill="none"/>
    <path d="M16 50 Q44 40 72 50 T100 50" stroke="#ffffff" stroke-opacity="0.14" stroke-width="1" fill="none"/>
    <rect x="68" y="58" width="28" height="13" rx="3" fill="#000000" fill-opacity="0.72"/>
    <text x="82" y="68" text-anchor="middle" font-family="ui-monospace, monospace" font-size="9" fill="#ffffff">09:11</text>
    <rect x="112" y="18" width="16" height="16" rx="4" fill="#f59e0b" fill-opacity="0.22" stroke="#f59e0b" stroke-opacity="0.4"/>
    <text x="120" y="30" text-anchor="middle" font-family="ui-monospace, monospace" font-size="9" font-weight="600" fill="#f59e0b">DB</text>
    <text x="136" y="30" font-family="Inter, system-ui, sans-serif" font-size="11" font-weight="500" fill="#a1a1aa">Demo Brand</text>
    <text x="220" y="30" font-family="ui-monospace, monospace" font-size="10" fill="#71717a">· standard audio visual</text>
    <text x="112" y="50" font-family="Inter, system-ui, sans-serif" font-size="13" font-weight="500" fill="#f4f4f5">Building a quiet workstation</text>
    <rect x="112" y="60" width="64" height="18" rx="9" fill="#f59e0b" fill-opacity="0.12" stroke="#f59e0b" stroke-opacity="0.24"/>
    <circle cx="124" cy="69" r="3" fill="#f59e0b"/>
    <text x="132" y="72.5" font-family="Inter, system-ui, sans-serif" font-size="11" font-weight="500" fill="#f59e0b">Ready</text>
    <!-- all 4 layers complete -->
    <rect x="188" y="65" width="18" height="4" rx="1" fill="#10b981"/>
    <rect x="210" y="65" width="18" height="4" rx="1" fill="#10b981"/>
    <rect x="232" y="65" width="18" height="4" rx="1" fill="#10b981"/>
    <rect x="254" y="65" width="18" height="4" rx="1" fill="#10b981"/>
    <text x="524" y="73" text-anchor="end" font-family="ui-monospace, monospace" font-size="10" fill="#71717a">21/22 assets</text>
  </g>

  <!-- ── CARD 3 (published) — bottom left ── -->
  <g transform="translate(56,420)">
    <rect x="0" y="0" width="536" height="92" rx="10" fill="#111114" stroke="#232329"/>
    <rect x="12" y="18" width="88" height="56" rx="6" fill="url(#thumbC)"/>
    <path d="M16 60 Q44 50 72 60 T100 60" stroke="#ffffff" stroke-opacity="0.18" stroke-width="1" fill="none"/>
    <path d="M16 50 Q44 40 72 50 T100 50" stroke="#ffffff" stroke-opacity="0.14" stroke-width="1" fill="none"/>
    <rect x="68" y="58" width="28" height="13" rx="3" fill="#000000" fill-opacity="0.72"/>
    <text x="82" y="68" text-anchor="middle" font-family="ui-monospace, monospace" font-size="9" fill="#ffffff">24:05</text>
    <rect x="112" y="18" width="16" height="16" rx="4" fill="#10b981" fill-opacity="0.22" stroke="#10b981" stroke-opacity="0.4"/>
    <text x="120" y="30" text-anchor="middle" font-family="ui-monospace, monospace" font-size="9" font-weight="600" fill="#10b981">AC</text>
    <text x="136" y="30" font-family="Inter, system-ui, sans-serif" font-size="11" font-weight="500" fill="#a1a1aa">Acme Media</text>
    <text x="216" y="30" font-family="ui-monospace, monospace" font-size="10" fill="#71717a">· standard audio visual</text>
    <text x="112" y="50" font-family="Inter, system-ui, sans-serif" font-size="13" font-weight="500" fill="#f4f4f5">The future of local AI</text>
    <rect x="112" y="60" width="80" height="18" rx="9" fill="#10b981" fill-opacity="0.12" stroke="#10b981" stroke-opacity="0.24"/>
    <circle cx="124" cy="69" r="3" fill="#10b981"/>
    <text x="132" y="72.5" font-family="Inter, system-ui, sans-serif" font-size="11" font-weight="500" fill="#10b981">Published</text>
    <rect x="204" y="65" width="18" height="4" rx="1" fill="#10b981"/>
    <rect x="226" y="65" width="18" height="4" rx="1" fill="#10b981"/>
    <rect x="248" y="65" width="18" height="4" rx="1" fill="#10b981"/>
    <rect x="270" y="65" width="18" height="4" rx="1" fill="#10b981"/>
    <text x="524" y="73" text-anchor="end" font-family="ui-monospace, monospace" font-size="10" fill="#71717a">22/22 assets</text>
  </g>

  <!-- ── CARD 4 (scheduled) — bottom right ── -->
  <g transform="translate(608,420)">
    <rect x="0" y="0" width="536" height="92" rx="10" fill="#111114" stroke="#232329"/>
    <rect x="12" y="18" width="88" height="56" rx="6" fill="url(#thumbD)"/>
    <path d="M16 60 Q44 50 72 60 T100 60" stroke="#ffffff" stroke-opacity="0.18" stroke-width="1" fill="none"/>
    <path d="M16 50 Q44 40 72 50 T100 50" stroke="#ffffff" stroke-opacity="0.14" stroke-width="1" fill="none"/>
    <rect x="68" y="58" width="28" height="13" rx="3" fill="#000000" fill-opacity="0.72"/>
    <text x="82" y="68" text-anchor="middle" font-family="ui-monospace, monospace" font-size="9" fill="#ffffff">12:33</text>
    <rect x="112" y="18" width="16" height="16" rx="4" fill="#a855f7" fill-opacity="0.22" stroke="#a855f7" stroke-opacity="0.4"/>
    <text x="120" y="30" text-anchor="middle" font-family="ui-monospace, monospace" font-size="9" font-weight="600" fill="#a855f7">DB</text>
    <text x="136" y="30" font-family="Inter, system-ui, sans-serif" font-size="11" font-weight="500" fill="#a1a1aa">Demo Brand</text>
    <text x="220" y="30" font-family="ui-monospace, monospace" font-size="10" fill="#71717a">· fast audio only</text>
    <text x="112" y="50" font-family="Inter, system-ui, sans-serif" font-size="13" font-weight="500" fill="#f4f4f5">Why your build is slow — and the fix</text>
    <rect x="112" y="60" width="80" height="18" rx="9" fill="#a855f7" fill-opacity="0.12" stroke="#a855f7" stroke-opacity="0.24"/>
    <circle cx="124" cy="69" r="3" fill="#a855f7"/>
    <text x="132" y="72.5" font-family="Inter, system-ui, sans-serif" font-size="11" font-weight="500" fill="#a855f7">Scheduled</text>
    <rect x="204" y="65" width="18" height="4" rx="1" fill="#10b981"/>
    <rect x="226" y="65" width="18" height="4" rx="1" fill="#10b981"/>
    <rect x="248" y="65" width="18" height="4" rx="1" fill="#232329"/>
    <rect x="270" y="65" width="18" height="4" rx="1" fill="#232329"/>
    <text x="524" y="73" text-anchor="end" font-family="ui-monospace, monospace" font-size="10" fill="#71717a">14/18 assets</text>
  </g>

  <!-- ════ FOOTER STRIP ════ -->
  <line x1="0" y1="700" x2="1200" y2="700" stroke="#232329"/>
  <text x="56" y="726" font-family="ui-monospace, monospace" font-size="11" fill="#52525b">local-first · your media never leaves your machine</text>
  <text x="1144" y="726" text-anchor="end" font-family="ui-monospace, monospace" font-size="11" fill="#52525b">4 packages · 24 workers idle</text>
</svg>
